<svg width="393" height="498" viewBox="0 0 393 498" fill="none" xmlns="http://www.w3.org/2000/svg">
<g filter="url(#filter0_ddddd_5_3346)">
<path opacity="0.4" d="M300.575 80.2125H294.825L246.238 31.625C242.356 27.7438 236.031 27.7438 232.006 31.625C228.125 35.5063 228.125 41.8313 232.006 45.8563L266.363 80.2125H126.637L160.994 45.8563C164.875 41.975 164.875 35.65 160.994 31.625C157.112 27.7438 150.787 27.7438 146.762 31.625L98.3188 80.2125H92.5687C79.6313 80.2125 52.75 80.2126 52.75 117.013C52.75 130.956 55.625 140.156 61.6625 146.194C65.1125 149.788 69.2812 151.656 73.7375 152.663C77.9062 153.669 82.3625 153.813 86.675 153.813H306.325C310.781 153.813 314.95 153.525 318.975 152.663C331.05 149.788 340.25 141.163 340.25 117.013C340.25 80.2126 313.369 80.2125 300.575 80.2125Z" fill="#9BAEC7"/>
<path d="M306.469 153.813H86.675C82.3625 153.813 77.9063 153.669 73.7375 152.663L91.85 263.063C95.875 287.788 106.656 316.25 154.525 316.25H235.169C283.613 316.25 292.238 291.956 297.413 264.788L319.119 152.663C315.094 153.525 310.781 153.813 306.469 153.813ZM176.519 246.675C176.519 252.281 172.063 256.738 166.456 256.738C160.85 256.738 156.394 252.281 156.394 246.675V199.238C156.394 193.631 160.85 189.175 166.456 189.175C172.063 189.175 176.519 193.631 176.519 199.238V246.675ZM238.044 246.675C238.044 252.281 233.588 256.738 227.981 256.738C222.375 256.738 217.919 252.281 217.919 246.675V199.238C217.919 193.631 222.375 189.175 227.981 189.175C233.588 189.175 238.044 193.631 238.044 199.238V246.675Z" fill="#9BAEC7"/>
</g>
<defs>
<filter id="filter0_ddddd_5_3346" x="-28" y="-10" width="449" height="536" filterUnits="userSpaceOnUse" color-interpolation-filters="sRGB">
<feFlood flood-opacity="0" result="BackgroundImageFix"/>
<feColorMatrix in="SourceAlpha" type="matrix" values="0 0 0 0 0 0 0 0 0 0 0 0 0 0 0 0 0 0 127 0" result="hardAlpha"/>
<feOffset/>
<feColorMatrix type="matrix" values="0 0 0 0 0 0 0 0 0 0 0 0 0 0 0 0 0 0 0.1 0"/>
<feBlend mode="normal" in2="BackgroundImageFix" result="effect1_dropShadow_5_3346"/>
<feColorMatrix in="SourceAlpha" type="matrix" values="0 0 0 0 0 0 0 0 0 0 0 0 0 0 0 0 0 0 127 0" result="hardAlpha"/>
<feOffset dy="8"/>
<feGaussianBlur stdDeviation="9"/>
<feColorMatrix type="matrix" values="0 0 0 0 0 0 0 0 0 0 0 0 0 0 0 0 0 0 0.1 0"/>
<feBlend mode="normal" in2="effect1_dropShadow_5_3346" result="effect2_dropShadow_5_3346"/>
<feColorMatrix in="SourceAlpha" type="matrix" values="0 0 0 0 0 0 0 0 0 0 0 0 0 0 0 0 0 0 127 0" result="hardAlpha"/>
<feOffset dy="32"/>
<feGaussianBlur stdDeviation="16"/>
<feColorMatrix type="matrix" values="0 0 0 0 0 0 0 0 0 0 0 0 0 0 0 0 0 0 0.09 0"/>
<feBlend mode="normal" in2="effect2_dropShadow_5_3346" result="effect3_dropShadow_5_3346"/>
<feColorMatrix in="SourceAlpha" type="matrix" values="0 0 0 0 0 0 0 0 0 0 0 0 0 0 0 0 0 0 127 0" result="hardAlpha"/>
<feOffset dy="73"/>
<feGaussianBlur stdDeviation="22"/>
<feColorMatrix type="matrix" values="0 0 0 0 0 0 0 0 0 0 0 0 0 0 0 0 0 0 0.05 0"/>
<feBlend mode="normal" in2="effect3_dropShadow_5_3346" result="effect4_dropShadow_5_3346"/>
<feColorMatrix in="SourceAlpha" type="matrix" values="0 0 0 0 0 0 0 0 0 0 0 0 0 0 0 0 0 0 127 0" result="hardAlpha"/>
<feOffset dy="129"/>
<feGaussianBlur stdDeviation="26"/>
<feColorMatrix type="matrix" values="0 0 0 0 0 0 0 0 0 0 0 0 0 0 0 0 0 0 0.01 0"/>
<feBlend mode="normal" in2="effect4_dropShadow_5_3346" result="effect5_dropShadow_5_3346"/>
<feBlend mode="normal" in="SourceGraphic" in2="effect5_dropShadow_5_3346" result="shape"/>
</filter>
</defs>
</svg>
