<svg width="381" height="495" viewBox="0 0 381 495" fill="none" xmlns="http://www.w3.org/2000/svg">
<g filter="url(#filter0_ddddd_5_3378)">
<path opacity="0.4" d="M178.602 310.842L61.1639 257.461C49.9284 252.354 49.9285 236.395 61.1639 231.288L178.602 177.908C186.161 174.472 194.836 174.472 202.395 177.908L319.833 231.288C331.069 236.395 331.069 252.354 319.833 257.461L202.395 310.842C194.836 314.278 186.161 314.278 178.602 310.842Z" fill="#9BAEC7"/>
<path d="M178.602 238.967L61.1639 185.586C49.9284 180.479 49.9285 164.52 61.1639 159.413L178.602 106.033C186.161 102.597 194.836 102.597 202.395 106.033L319.833 159.413C331.069 164.52 331.069 180.479 319.833 185.586L202.395 238.967C194.836 242.403 186.161 242.403 178.602 238.967Z" fill="#9BAEC7"/>
<path opacity="0.4" d="M178.602 167.092L61.1639 113.711C49.9284 108.604 49.9285 92.6454 61.1639 87.5383L178.602 34.1575C186.161 30.7216 194.836 30.7216 202.395 34.1575L319.833 87.5384C331.069 92.6454 331.069 108.604 319.833 113.711L202.395 167.092C194.836 170.528 186.161 170.528 178.602 167.092Z" fill="#9BAEC7"/>
</g>
<defs>
<filter id="filter0_ddddd_5_3378" x="-34" y="-10" width="449" height="536" filterUnits="userSpaceOnUse" color-interpolation-filters="sRGB">
<feFlood flood-opacity="0" result="BackgroundImageFix"/>
<feColorMatrix in="SourceAlpha" type="matrix" values="0 0 0 0 0 0 0 0 0 0 0 0 0 0 0 0 0 0 127 0" result="hardAlpha"/>
<feOffset/>
<feColorMatrix type="matrix" values="0 0 0 0 0 0 0 0 0 0 0 0 0 0 0 0 0 0 0.1 0"/>
<feBlend mode="normal" in2="BackgroundImageFix" result="effect1_dropShadow_5_3378"/>
<feColorMatrix in="SourceAlpha" type="matrix" values="0 0 0 0 0 0 0 0 0 0 0 0 0 0 0 0 0 0 127 0" result="hardAlpha"/>
<feOffset dy="8"/>
<feGaussianBlur stdDeviation="9"/>
<feColorMatrix type="matrix" values="0 0 0 0 0 0 0 0 0 0 0 0 0 0 0 0 0 0 0.1 0"/>
<feBlend mode="normal" in2="effect1_dropShadow_5_3378" result="effect2_dropShadow_5_3378"/>
<feColorMatrix in="SourceAlpha" type="matrix" values="0 0 0 0 0 0 0 0 0 0 0 0 0 0 0 0 0 0 127 0" result="hardAlpha"/>
<feOffset dy="32"/>
<feGaussianBlur stdDeviation="16"/>
<feColorMatrix type="matrix" values="0 0 0 0 0 0 0 0 0 0 0 0 0 0 0 0 0 0 0.09 0"/>
<feBlend mode="normal" in2="effect2_dropShadow_5_3378" result="effect3_dropShadow_5_3378"/>
<feColorMatrix in="SourceAlpha" type="matrix" values="0 0 0 0 0 0 0 0 0 0 0 0 0 0 0 0 0 0 127 0" result="hardAlpha"/>
<feOffset dy="73"/>
<feGaussianBlur stdDeviation="22"/>
<feColorMatrix type="matrix" values="0 0 0 0 0 0 0 0 0 0 0 0 0 0 0 0 0 0 0.05 0"/>
<feBlend mode="normal" in2="effect3_dropShadow_5_3378" result="effect4_dropShadow_5_3378"/>
<feColorMatrix in="SourceAlpha" type="matrix" values="0 0 0 0 0 0 0 0 0 0 0 0 0 0 0 0 0 0 127 0" result="hardAlpha"/>
<feOffset dy="129"/>
<feGaussianBlur stdDeviation="26"/>
<feColorMatrix type="matrix" values="0 0 0 0 0 0 0 0 0 0 0 0 0 0 0 0 0 0 0.01 0"/>
<feBlend mode="normal" in2="effect4_dropShadow_5_3378" result="effect5_dropShadow_5_3378"/>
<feBlend mode="normal" in="SourceGraphic" in2="effect5_dropShadow_5_3378" result="shape"/>
</filter>
</defs>
</svg>
